<svg width="14" height="8" viewBox="0 0 14 8" fill="none" xmlns="http://www.w3.org/2000/svg">
<path d="M13.6547 2.0458L7.87892 7.66412C7.75336 7.78626 7.61734 7.87257 7.47085 7.92305C7.32436 7.97435 7.16741 8 7 8C6.83259 8 6.67563 7.97435 6.52915 7.92305C6.38266 7.87257 6.24664 7.78626 6.12108 7.66412L0.345291 2.0458C0.115096 1.82188 -2.25735e-07 1.5369 -2.37822e-07 1.19084C-2.49909e-07 0.844785 0.115096 0.559798 0.345291 0.335879C0.575485 0.11196 0.86846 4.29328e-07 1.22421 4.09866e-07C1.57997 3.90404e-07 1.87294 0.11196 2.10314 0.335879L7 5.09924L11.8969 0.335879C12.1271 0.11196 12.42 -2.02606e-07 12.7758 -2.22068e-07C13.1315 -2.4153e-07 13.4245 0.11196 13.6547 0.335879C13.8849 0.559797 14 0.844784 14 1.19084C14 1.5369 13.8849 1.82188 13.6547 2.0458Z" fill="#C61010"/>
</svg>
