<svg width="35" height="21" viewBox="0 0 35 21" fill="none" xmlns="http://www.w3.org/2000/svg">
<path d="M0.839797 14.9008L14.8856 0.840558C15.1909 0.5349 15.5217 0.318902 15.878 0.192563C16.2342 0.0641866 16.6159 -7.62675e-07 17.023 -7.44861e-07C17.4301 -7.27047e-07 17.8118 0.0641866 18.168 0.192563C18.5243 0.318902 18.8551 0.5349 19.1604 0.840558L33.2062 14.9008C33.766 15.4612 34.0459 16.1744 34.0459 17.0404C34.0459 17.9065 33.766 18.6197 33.2062 19.18C32.6464 19.7404 31.9339 20.0206 31.0688 20.0206C30.2037 20.0206 29.4912 19.7404 28.9314 19.18L17.023 7.25938L5.1146 19.18C4.55481 19.7404 3.84234 20.0206 2.9772 20.0206C2.11206 20.0206 1.39959 19.7404 0.839797 19.18C0.280002 18.6197 9.84002e-05 17.9065 9.8438e-05 17.0404C9.84759e-05 16.1744 0.280002 15.4612 0.839797 14.9008Z" fill="#C61010"/>
</svg>
