<svg width="32" height="33" viewBox="0 0 32 33" fill="none" xmlns="http://www.w3.org/2000/svg">
<path d="M16 0.0216064C11.7575 0.0216064 7.685 1.71009 4.6875 4.71268C1.68691 7.71646 0.000831175 11.7902 0 16.0381C0 20.2842 1.6875 24.3609 4.6875 27.3635C7.685 30.3661 11.7575 32.0546 16 32.0546C20.2425 32.0546 24.315 30.3661 27.3125 27.3635C30.3125 24.3609 32 20.2842 32 16.0381C32 11.792 30.3125 7.71527 27.3125 4.71268C24.315 1.71009 20.2425 0.0216064 16 0.0216064Z" fill="url(#paint0_linear_34_46)"/>
<path d="M7.24238 15.8691C11.9074 13.835 15.0174 12.4938 16.5724 11.8459C21.0174 9.99576 21.9399 9.67443 22.5424 9.66355C22.6749 9.66142 22.9699 9.6942 23.1624 9.84999C23.3224 9.98137 23.3674 10.1591 23.3899 10.2838C23.4099 10.4084 23.4374 10.6925 23.4149 10.9142C23.1749 13.4468 22.1324 19.5926 21.6024 22.4293C21.3799 23.6295 20.9374 24.032 20.5099 24.0712C19.5799 24.1568 18.8749 23.4566 17.9749 22.8663C16.5674 21.9421 15.7724 21.367 14.4049 20.4653C12.8249 19.4232 13.8499 18.8504 14.7499 17.9144C14.9849 17.6694 19.0799 13.9418 19.1574 13.6037C19.1674 13.5614 19.1774 13.4038 19.0824 13.3207C18.9899 13.2373 18.8524 13.2659 18.7524 13.2884C18.6099 13.3204 16.3624 14.809 12.0024 17.7537C11.3649 18.1927 10.7874 18.4067 10.2674 18.3954C9.69738 18.3831 8.59738 18.0721 7.77988 17.8063C6.77988 17.4802 5.98238 17.3078 6.05238 16.754C6.08738 16.4657 6.48488 16.1706 7.24238 15.8691Z" fill="white"/>
<defs>
<linearGradient id="paint0_linear_34_46" x1="16" y1="0.0216064" x2="16" y2="32.0546" gradientUnits="userSpaceOnUse">
<stop stop-color="#2AABEE"/>
<stop offset="1" stop-color="#229ED9"/>
</linearGradient>
</defs>
</svg>
