<svg width="32" height="33" viewBox="0 0 32 33" fill="none" xmlns="http://www.w3.org/2000/svg">
<path d="M0.133369 15.9652C0.132593 18.7749 0.865995 21.5184 2.26055 23.9366L0 32.1987L8.44656 29.9817C10.7828 31.2548 13.4003 31.9219 16.0603 31.9221H16.0673C24.8483 31.9221 31.9962 24.7694 32 15.9777C32.0017 11.7176 30.3458 7.7116 27.3374 4.69772C24.3294 1.68409 20.329 0.0235507 16.0666 0.0216064C7.28456 0.0216064 0.137125 7.17394 0.133499 15.9652" fill="url(#paint0_linear_34_49)"/>
<path d="M11.9442 9.05541C11.6353 8.36805 11.3101 8.35418 11.0163 8.34212C10.7757 8.33175 10.5007 8.33253 10.2259 8.33253C9.95092 8.33253 9.50407 8.4361 9.12636 8.84893C8.74826 9.26216 7.68286 10.2607 7.68286 12.2917C7.68286 14.3228 9.16067 16.2857 9.36668 16.5614C9.57295 16.8365 12.2196 21.1378 16.4113 22.7925C19.895 24.1676 20.6039 23.8941 21.36 23.8252C22.1162 23.7565 23.8 22.8268 24.1435 21.8629C24.4873 20.899 24.4873 20.0728 24.3842 19.9002C24.2811 19.7282 24.0061 19.6249 23.5937 19.4185C23.1812 19.212 21.1537 18.2133 20.7757 18.0756C20.3976 17.9379 20.1227 17.8692 19.8477 18.2826C19.5727 18.6953 18.783 19.6249 18.5422 19.9002C18.3018 20.1761 18.0611 20.2105 17.6488 20.004C17.2361 19.7969 15.908 19.3615 14.3323 17.9553C13.1063 16.861 12.2787 15.5098 12.0381 15.0964C11.7975 14.6837 12.0123 14.46 12.2191 14.2543C12.4044 14.0693 12.6316 13.7722 12.838 13.5313C13.0437 13.2902 13.1123 13.1182 13.2498 12.8429C13.3874 12.5673 13.3186 12.3262 13.2156 12.1197C13.1123 11.9132 12.3109 9.87162 11.9442 9.05541Z" fill="white"/>
<defs>
<linearGradient id="paint0_linear_34_49" x1="16" y1="32.1987" x2="16" y2="0.0216064" gradientUnits="userSpaceOnUse">
<stop stop-color="#1FAF38"/>
<stop offset="1" stop-color="#60D669"/>
</linearGradient>
</defs>
</svg>
