<svg width="342" height="34" viewBox="0 0 342 34" fill="none" xmlns="http://www.w3.org/2000/svg">
<path d="M34.752 6.77714C36.0091 6.77714 70.2583 6.77714 70.2583 6.77714C70.2583 6.77714 69.4203 5.3967 67.2692 3.61807C65.1182 1.83943 63.4979 1.2554 59.0561 0.538639C54.2512 -0.231219 38.0764 -0.0188441 35.7577 0.220077C33.8022 0.432452 33.2714 0.989934 33.0479 1.3085C32.6289 1.91907 32.6289 2.52965 32.7406 3.37915C32.8244 3.98972 32.9921 4.67994 33.1317 5.26397C33.4949 6.72404 34.333 6.77714 34.752 6.77714Z" fill="#C61010"/>
<path d="M73.1078 7.75932C73.8062 7.75932 76.5998 7.14874 77.2423 6.43198C77.8848 5.68867 76.7394 4.89226 75.9014 4.49406C75.0633 4.09586 73.6386 3.35255 72.3815 3.96312C72.3815 3.96312 72.1859 3.96312 71.9624 4.89226C71.7948 5.8214 72.4094 7.75932 73.1078 7.75932Z" fill="#C61010"/>
<path d="M16.4819 10.0691C17.7111 10.5735 28.1032 6.85692 28.1032 6.85692C28.1032 6.85692 29.3603 6.51181 30.1425 4.86591C30.7291 3.61821 31.5393 1.94576 30.8967 1.22899C30.7571 1.09626 30.366 0.724606 29.2206 1.12281C27.3489 1.75993 23.5217 3.16691 19.6386 6.1667C17.0406 8.18426 15.2527 9.56469 16.4819 10.0691Z" fill="#C61010"/>
<path d="M14.4148 9.06014C14.4428 9.45834 16.2865 6.11344 21.4826 3.19329C22.2089 2.76854 19.6388 3.1402 17.2084 3.75078C15.9513 4.06934 13.3533 4.60027 13.1019 5.42322C12.8784 6.19308 13.493 6.90985 13.7164 7.22841C13.9679 7.62661 14.359 8.34337 14.4148 9.06014Z" fill="#C61010"/>
<path d="M80.3711 29.926C81.5723 29.7667 81.9076 28.1208 81.9914 27.935C83.1647 27.935 83.3602 27.935 83.8351 27.935C84.6732 27.935 84.5894 26.3953 84.7291 23.2627C84.7849 21.8292 85.0084 20.1037 84.8408 16.9711C84.6453 13.228 81.8517 9.59114 79.6168 9.53804C76.2645 9.48495 74.4487 10.3079 73.024 13.6263C73.5827 13.5997 80.7063 13.6263 81.3768 14.2634C82.0472 14.9005 82.0472 16.626 82.0472 16.626C82.0472 16.626 74.5325 16.4402 72.2418 16.5729C71.7948 19.4135 71.5434 22.1743 66.9899 22.6787C59.8383 23.4751 52.7985 23.2096 50.4799 19.44C50.0608 18.7763 49.4742 17.8206 48.5523 16.7322C44.6134 16.7057 37.7412 16.8384 37.378 16.8384C36.9031 16.8384 36.6517 15.8562 36.5399 15.166C36.3444 14.051 36.959 14.2103 45.3676 13.7324C43.3004 12.1662 40.4509 10.5999 36.5679 9.37876C27.0977 6.43207 24.8069 8.34344 23.3822 11.2901C22.2648 13.6263 22.1251 16.0686 22.2927 18.9622C22.3206 19.4665 22.2927 21.1655 22.2927 21.3248C20.1696 21.2452 16.5938 21.5372 16.3983 17.7941C16.2027 13.9979 16.8452 12.8033 16.8452 12.5644C16.8452 12.3255 13.8282 12.2724 14.5545 10.5999C15.2529 8.92747 11.4536 10.8123 10.5876 11.3963C10.0848 11.5556 9.41434 12.1396 9.19086 13.0688C9.13498 13.3342 9.07911 13.9183 9.05118 14.7412C8.01755 15.4845 7.26329 18.5374 7.26329 22.2274C7.26329 24.8555 7.65439 27.1651 8.24104 28.5456C8.40865 28.9438 8.9115 29.7933 9.33053 30.0322C3.46403 30.2711 0 30.5897 0 30.9082C0 31.7312 20.7004 32.3948 46.2336 32.3948C71.7669 32.3948 92.4673 31.7312 92.4673 30.9082C92.4393 30.5366 87.8858 30.1915 80.3711 29.926ZM25.7567 13.6793C26.7624 13.6793 27.5726 16.7588 27.5726 20.555C27.5726 24.3512 26.7624 27.4306 25.7567 27.4306C24.7511 27.4306 23.9409 24.3512 23.9409 20.555C23.9409 16.7588 24.7511 13.6793 25.7567 13.6793ZM8.6042 22.2274C8.6042 18.9622 9.3026 16.3075 10.1686 16.3075C11.0346 16.3075 11.733 18.9622 11.733 22.2274C11.733 25.4927 11.0346 28.1474 10.1686 28.1474C9.3026 28.1474 8.6042 25.4927 8.6042 22.2274ZM18.3817 27.4306C20.0858 27.5102 21.8178 27.5633 23.3263 27.5899C23.6616 28.519 24.0806 29.2092 24.5555 29.6074C21.9295 29.6605 19.4153 29.7136 17.1246 29.7667C17.5995 29.4747 18.0465 28.6252 18.3817 27.4306ZM32.8245 29.5012C33.048 29.2623 33.2435 28.8907 33.4391 28.4394C37.7412 28.4128 58.665 28.2004 72.158 28.0412C72.4932 28.8376 72.9123 29.4216 73.3592 29.7136C65.7328 29.5278 56.3464 29.4216 46.2057 29.4216C41.5684 29.4481 37.0707 29.4481 32.8245 29.5012Z" fill="#C61010"/>
<path d="M103.942 32.7109V0.441188H116.043C118.522 0.441188 120.602 0.903385 122.282 1.82778C123.974 2.75217 125.25 4.02321 126.111 5.6409C126.983 7.24808 127.419 9.07586 127.419 11.1242C127.419 13.1936 126.983 15.0319 126.111 16.6391C125.239 18.2463 123.953 19.5121 122.251 20.4364C120.549 21.3503 118.454 21.8073 115.964 21.8073H107.944V17.0015H115.176C116.626 17.0015 117.813 16.7494 118.737 16.2452C119.662 15.7409 120.344 15.0477 120.786 14.1653C121.237 13.2829 121.463 12.2692 121.463 11.1242C121.463 9.97925 121.237 8.97082 120.786 8.09895C120.344 7.22708 119.656 6.54954 118.721 6.06633C117.797 5.57262 116.605 5.32577 115.145 5.32577H109.787V32.7109H103.942Z" fill="white"/>
<path d="M132.497 32.7109V0.441188H138.342V27.8106H152.555V32.7109H132.497Z" fill="white"/>
<path d="M162.986 32.7109H156.746L168.107 0.441188H175.323L186.7 32.7109H180.46L171.841 7.059H171.589L162.986 32.7109ZM163.191 20.0583H180.208V24.7538H163.191V20.0583Z" fill="white"/>
<path d="M217.469 0.441188V32.7109H212.269L197.064 10.7303H196.796V32.7109H190.95V0.441188H196.181L211.371 22.4375H211.654V0.441188H217.469Z" fill="white"/>
<path d="M222.42 5.34152V0.441188H248.167V5.34152H238.193V32.7109H232.394V5.34152H222.42Z" fill="white"/>
<path d="M279.322 11.3291H273.429C273.261 10.3627 272.951 9.50654 272.499 8.76073C272.047 8.00441 271.485 7.36363 270.813 6.83841C270.141 6.31319 269.374 5.91927 268.513 5.65666C267.662 5.38354 266.743 5.24698 265.755 5.24698C264.001 5.24698 262.446 5.68817 261.091 6.57054C259.736 7.44241 258.675 8.72396 257.908 10.4152C257.141 12.0959 256.758 14.1495 256.758 16.5761C256.758 19.0446 257.141 21.1245 257.908 22.8157C258.686 24.4964 259.747 25.7675 261.091 26.6288C262.446 27.4797 263.996 27.9051 265.739 27.9051C266.706 27.9051 267.609 27.7791 268.45 27.527C269.3 27.2643 270.062 26.8809 270.734 26.3767C271.417 25.8725 271.99 25.2527 272.452 24.5174C272.924 23.7821 273.25 22.9418 273.429 21.9964L279.322 22.0279C279.101 23.5615 278.623 25.0006 277.888 26.3452C277.163 27.6898 276.212 28.8768 275.036 29.9062C273.859 30.9252 272.483 31.7235 270.908 32.3012C269.332 32.8685 267.583 33.1521 265.661 33.1521C262.824 33.1521 260.293 32.4956 258.066 31.1825C255.839 29.8695 254.085 27.9734 252.803 25.4943C251.522 23.0153 250.881 20.0425 250.881 16.5761C250.881 13.0991 251.527 10.1263 252.819 7.65776C254.111 5.17871 255.87 3.28265 258.097 1.96959C260.324 0.656529 262.845 0 265.661 0C267.457 0 269.127 0.252107 270.671 0.756321C272.215 1.26054 273.591 2.0011 274.799 2.97802C276.007 3.94443 277 5.13143 277.777 6.53903C278.565 7.93613 279.08 9.53281 279.322 11.3291Z" fill="white"/>
<path d="M288.429 32.7109H282.189L293.55 0.441188H300.767L312.143 32.7109H305.903L297.284 7.059H297.032L288.429 32.7109ZM288.634 20.0583H305.651V24.7538H288.634V20.0583Z" fill="white"/>
<path d="M316.393 32.7109V0.441188H328.494C330.973 0.441188 333.053 0.871871 334.734 1.73324C336.425 2.5946 337.702 3.80262 338.563 5.35728C339.435 6.90144 339.871 8.70295 339.871 10.7618C339.871 12.8312 339.43 14.6275 338.547 16.1506C337.675 17.6633 336.388 18.8345 334.687 19.6644C332.985 20.4837 330.895 20.8934 328.416 20.8934H319.797V16.0403H327.628C329.077 16.0403 330.264 15.8407 331.189 15.4416C332.113 15.0319 332.796 14.4384 333.237 13.6611C333.689 12.8732 333.915 11.9068 333.915 10.7618C333.915 9.61684 333.689 8.63993 333.237 7.83108C332.785 7.01173 332.097 6.39197 331.173 5.97179C330.249 5.54111 329.056 5.32577 327.596 5.32577H322.239V32.7109H316.393ZM333.064 18.0887L341.052 32.7109H334.529L326.682 18.0887H333.064Z" fill="white"/>
</svg>
