<svg width="254" height="25" viewBox="0 0 254 25" fill="none" xmlns="http://www.w3.org/2000/svg">
<path d="M25.8051 5.31787C26.7385 5.31787 52.1702 5.31787 52.1702 5.31787C52.1702 5.31787 51.5479 4.29283 49.9506 2.97211C48.3534 1.65139 47.1502 1.21772 43.852 0.685487C40.2841 0.113832 28.2736 0.27153 26.5518 0.44894C25.0998 0.606638 24.7057 1.0206 24.5397 1.25714C24.2286 1.71052 24.2286 2.16391 24.3115 2.7947C24.3738 3.24808 24.4982 3.7606 24.6019 4.19427C24.8716 5.27844 25.4939 5.31787 25.8051 5.31787Z" fill="#C61010"/>
<path d="M54.2857 6.04722C54.8043 6.04722 56.8787 5.59384 57.3558 5.06161C57.8329 4.50966 56.9824 3.91829 56.3601 3.62261C55.7378 3.32693 54.6799 2.77498 53.7464 3.22837C53.7464 3.22837 53.6012 3.22837 53.4352 3.91829C53.3108 4.60822 53.7671 6.04722 54.2857 6.04722Z" fill="#C61010"/>
<path d="M12.2387 7.76212C13.1514 8.13665 20.868 5.37694 20.868 5.37694C20.868 5.37694 21.8015 5.12068 22.3823 3.89852C22.8179 2.97204 23.4195 1.73017 22.9424 1.19794C22.8386 1.09938 22.5482 0.823409 21.6977 1.11909C20.3079 1.59219 17.466 2.63694 14.5827 4.86442C12.6535 6.36255 11.3259 7.38759 12.2387 7.76212Z" fill="#C61010"/>
<path d="M10.7036 7.01314C10.7243 7.30883 12.0934 4.82508 15.9517 2.65673C16.491 2.34134 14.5826 2.61731 12.7779 3.07069C11.8445 3.30724 9.91532 3.70148 9.72862 4.31256C9.56267 4.88422 10.019 5.41645 10.185 5.653C10.3717 5.94868 10.6621 6.48091 10.7036 7.01314Z" fill="#C61010"/>
<path d="M59.6793 22.5069C60.5713 22.3886 60.8202 21.1665 60.8825 21.0285C61.7537 21.0285 61.8989 21.0285 62.2515 21.0285C62.8738 21.0285 62.8116 19.8852 62.9153 17.5591C62.9568 16.4947 63.1228 15.2134 62.9983 12.8873C62.8531 10.1079 60.7787 7.40733 59.1193 7.3679C56.63 7.32848 55.2817 7.93956 54.2238 10.4036C54.6386 10.3839 59.9283 10.4036 60.4261 10.8767C60.9239 11.3498 60.924 12.6311 60.924 12.6311C60.924 12.6311 55.3439 12.4931 53.6429 12.5916C53.311 14.7009 53.1244 16.7509 49.7431 17.1255C44.4328 17.7168 39.2054 17.5197 37.4837 14.7206C37.1725 14.2278 36.7369 13.5181 36.0524 12.7099C33.1275 12.6902 28.0246 12.7888 27.7549 12.7888C27.4023 12.7888 27.2156 12.0594 27.1326 11.5469C26.9874 10.719 27.4438 10.8373 33.6876 10.4824C32.1526 9.31942 30.0367 8.15639 27.1534 7.24963C20.1213 5.06157 18.4203 6.48085 17.3624 8.66891C16.5326 10.4036 16.4289 12.2171 16.5534 14.3658C16.5741 14.7403 16.5534 16.0019 16.5534 16.1201C14.9769 16.061 12.3217 16.2778 12.1765 13.4984C12.0313 10.6796 12.5084 9.79251 12.5084 9.6151C12.5084 9.43769 10.2681 9.39826 10.8074 8.15639C11.326 6.91452 8.50488 8.31409 7.86182 8.74776C7.48844 8.86603 6.99059 9.2997 6.82464 9.98963C6.78316 10.1868 6.74167 10.6204 6.72093 11.2315C5.95341 11.7834 5.39334 14.0504 5.39334 16.7904C5.39334 18.7419 5.68375 20.4568 6.11936 21.4819C6.24382 21.7776 6.61721 22.4083 6.92836 22.5858C2.57221 22.7632 0 22.9997 0 23.2363C0 23.8473 15.371 24.3402 34.3307 24.3402C53.2903 24.3402 68.6613 23.8473 68.6613 23.2363C68.6406 22.9603 65.2594 22.704 59.6793 22.5069ZM19.1256 10.443C19.8724 10.443 20.4739 12.7296 20.4739 15.5485C20.4739 18.3673 19.8724 20.654 19.1256 20.654C18.3788 20.654 17.7773 18.3673 17.7773 15.5485C17.7773 12.7296 18.3788 10.443 19.1256 10.443ZM6.38903 16.7904C6.38903 14.3658 6.90762 12.3945 7.55067 12.3945C8.19372 12.3945 8.71231 14.3658 8.71231 16.7904C8.71231 19.215 8.19372 21.1862 7.55067 21.1862C6.90762 21.1862 6.38903 19.215 6.38903 16.7904ZM13.6493 20.654C14.9146 20.7131 16.2008 20.7525 17.3209 20.7722C17.5698 21.4622 17.881 21.9747 18.2336 22.2704C16.2837 22.3098 14.4168 22.3492 12.7158 22.3886C13.0685 22.1718 13.4004 21.541 13.6493 20.654ZM24.3737 22.1915C24.5397 22.0141 24.6849 21.7381 24.8301 21.403C28.0246 21.3833 43.5616 21.2256 53.5807 21.1073C53.8296 21.6987 54.1408 22.1324 54.4727 22.3492C48.8097 22.2112 41.8398 22.1324 34.3099 22.1324C30.8665 22.1521 27.5268 22.1521 24.3737 22.1915Z" fill="#C61010"/>
<path d="M77.1816 24.2894V0.327603H86.1673C88.0081 0.327603 89.5525 0.670806 90.8006 1.35721C92.0564 2.04362 93.0041 2.98742 93.6437 4.18863C94.2911 5.38204 94.6148 6.73926 94.6148 8.26027C94.6148 9.79688 94.2911 11.1619 93.6437 12.3553C92.9963 13.5487 92.0408 14.4886 90.7772 15.175C89.5135 15.8536 87.9574 16.1929 86.1088 16.1929H80.1535V12.6244H85.5238C86.6002 12.6244 87.4816 12.4372 88.168 12.0628C88.8544 11.6884 89.3614 11.1736 89.689 10.5184C90.0244 9.86318 90.1921 9.11048 90.1921 8.26027C90.1921 7.41006 90.0244 6.66126 89.689 6.01385C89.3614 5.36644 88.8505 4.86334 88.1563 4.50454C87.4699 4.13794 86.5846 3.95463 85.5004 3.95463H81.5224V24.2894H77.1816Z" fill="white"/>
<path d="M98.3851 24.2894V0.327603H102.726V20.6507H113.279V24.2894H98.3851Z" fill="white"/>
<path d="M121.025 24.2894H116.392L124.827 0.327603H130.186L138.633 24.2894H134L127.6 5.24164H127.413L121.025 24.2894ZM121.177 14.8942H133.813V18.3808H121.177V14.8942Z" fill="white"/>
<path d="M161.481 0.327603V24.2894H157.62L146.329 7.96777H146.13V24.2894H141.79V0.327603H145.674L156.953 16.6609H157.163V0.327603H161.481Z" fill="white"/>
<path d="M165.158 3.96633V0.327603H184.276V3.96633H176.869V24.2894H172.564V3.96633H165.158Z" fill="white"/>
<path d="M207.41 8.41237H203.034C202.909 7.69476 202.679 7.05906 202.343 6.50525C202.008 5.94365 201.591 5.46784 201.092 5.07784C200.592 4.68784 200.023 4.39534 199.383 4.20034C198.751 3.99753 198.069 3.89613 197.336 3.89613C196.033 3.89613 194.879 4.22373 193.873 4.87894C192.866 5.52634 192.079 6.47795 191.509 7.73376C190.94 8.98177 190.655 10.5067 190.655 12.3085C190.655 14.1415 190.94 15.6859 191.509 16.9417C192.086 18.1897 192.874 19.1336 193.873 19.7732C194.879 20.405 196.029 20.7209 197.324 20.7209C198.042 20.7209 198.712 20.6273 199.337 20.4401C199.968 20.2451 200.534 19.9604 201.033 19.586C201.54 19.2116 201.965 18.7514 202.308 18.2053C202.659 17.6593 202.901 17.0353 203.034 16.3333L207.41 16.3567C207.246 17.4955 206.891 18.5642 206.345 19.5626C205.807 20.561 205.101 21.4424 204.227 22.2068C203.354 22.9634 202.332 23.5562 201.162 23.9852C199.992 24.4064 198.693 24.617 197.266 24.617C195.16 24.617 193.28 24.1295 191.626 23.1545C189.973 22.1795 188.67 20.7716 187.718 18.9308C186.767 17.0899 186.291 14.8825 186.291 12.3085C186.291 9.72668 186.771 7.51926 187.73 5.68625C188.689 3.84543 189.996 2.43752 191.65 1.46251C193.303 0.487504 195.175 0 197.266 0C198.599 0 199.84 0.187201 200.986 0.561604C202.133 0.936008 203.155 1.48591 204.052 2.21132C204.949 2.92892 205.686 3.81033 206.263 4.85554C206.848 5.89295 207.23 7.07856 207.41 8.41237Z" fill="white"/>
<path d="M214.172 24.2894H209.539L217.975 0.327603H223.333L231.781 24.2894H227.148L220.748 5.24164H220.56L214.172 24.2894ZM214.324 14.8942H226.96V18.3808H214.324V14.8942Z" fill="white"/>
<path d="M234.937 24.2894V0.327603H243.923C245.763 0.327603 247.308 0.647405 248.556 1.28701C249.812 1.92662 250.759 2.82362 251.399 3.97803C252.046 5.12464 252.37 6.46235 252.37 7.99116C252.37 9.52778 252.043 10.8616 251.387 11.9926C250.74 13.1158 249.784 13.9855 248.521 14.6017C247.257 15.2101 245.705 15.5143 243.864 15.5143H237.464V11.9107H243.279C244.356 11.9107 245.237 11.7625 245.923 11.4661C246.61 11.1619 247.117 10.7212 247.444 10.144C247.78 9.55898 247.947 8.84137 247.947 7.99116C247.947 7.14096 247.78 6.41555 247.444 5.81495C247.109 5.20654 246.598 4.74634 245.912 4.43434C245.225 4.11453 244.34 3.95463 243.256 3.95463H239.278V24.2894H234.937ZM247.316 13.4317L253.248 24.2894H248.404L242.577 13.4317H247.316Z" fill="white"/>
</svg>
